<svg width="44" height="44" viewBox="0 0 44 44" fill="none" xmlns="http://www.w3.org/2000/svg">
<rect width="44" height="44" rx="22" fill="#00494B"/>
<path d="M16.3242 30.5V29.832L21.0938 23.8438C21.7031 23.0859 22.2695 22.375 22.793 21.7109C23.3164 21.0391 23.7383 20.3945 24.0586 19.7773C24.3789 19.1602 24.5391 18.5508 24.5391 17.9492C24.5391 17.4336 24.418 16.9727 24.1758 16.5664C23.9336 16.1602 23.6055 15.8438 23.1914 15.6172C22.7773 15.3906 22.3047 15.2773 21.7734 15.2773C21.2031 15.2773 20.6914 15.4102 20.2383 15.6758C19.7852 15.9336 19.4258 16.293 19.1602 16.7539C18.9023 17.207 18.7734 17.7344 18.7734 18.3359H16.3008C16.3164 17.3125 16.5586 16.4023 17.0273 15.6055C17.5039 14.8008 18.1523 14.1719 18.9727 13.7188C19.793 13.2656 20.7227 13.0391 21.7617 13.0391C22.7539 13.0391 23.6367 13.25 24.4102 13.6719C25.1914 14.0859 25.8086 14.6602 26.2617 15.3945C26.7148 16.1211 26.9414 16.957 26.9414 17.9023C26.9414 18.6914 26.7852 19.4375 26.4727 20.1406C26.1602 20.8438 25.7266 21.5664 25.1719 22.3086C24.625 23.043 23.9883 23.8516 23.2617 24.7344L20.4492 28.2148V28.3086L22.875 28.2617H27.2578V30.5H16.3242Z" fill="white"/>
</svg>
