<svg width="44" height="44" viewBox="0 0 44 44" fill="none" xmlns="http://www.w3.org/2000/svg">
<rect width="44" height="44" rx="22" fill="#00494B"/>
<path d="M21.75 30.6875C20.7266 30.6875 19.7852 30.4766 18.9258 30.0547C18.0742 29.6328 17.3945 29.043 16.8867 28.2852C16.3789 27.5273 16.125 26.6445 16.125 25.6367L18.5742 25.5898C18.5742 26.168 18.7188 26.6758 19.0078 27.1133C19.3047 27.5508 19.6914 27.8906 20.168 28.1328C20.6523 28.3672 21.1836 28.4844 21.7617 28.4844C22.3555 28.4844 22.8906 28.3555 23.3672 28.0977C23.8516 27.8398 24.2305 27.4883 24.5039 27.043C24.7852 26.5898 24.9258 26.0781 24.9258 25.5078C24.9258 24.9453 24.7812 24.4453 24.4922 24.0078C24.2031 23.5625 23.7773 23.2109 23.2148 22.9531C22.6602 22.6875 21.9766 22.5547 21.1641 22.5547H20.4258L20.4492 20.4922H21.293C21.9023 20.4922 22.4297 20.3633 22.875 20.1055C23.3203 19.8477 23.6641 19.5078 23.9062 19.0859C24.1562 18.6562 24.2812 18.1836 24.2812 17.668C24.2812 17.1602 24.1758 16.7266 23.9648 16.3672C23.7539 16.0078 23.457 15.7305 23.0742 15.5352C22.6914 15.3398 22.25 15.2422 21.75 15.2422C21.2344 15.2422 20.7773 15.3438 20.3789 15.5469C19.9883 15.7422 19.6797 16.0234 19.4531 16.3906C19.2266 16.7578 19.1133 17.1836 19.1133 17.668H16.7461C16.7383 16.793 16.9453 16.0078 17.3672 15.3125C17.7891 14.6094 18.375 14.0547 19.125 13.6484C19.875 13.2422 20.7422 13.0391 21.7266 13.0391C22.6875 13.0391 23.543 13.2305 24.293 13.6133C25.0508 13.9883 25.6484 14.5117 26.0859 15.1836C26.5234 15.8477 26.7422 16.6133 26.7422 17.4805C26.7422 18.332 26.5312 19.0859 26.1094 19.7422C25.6953 20.3984 25.1406 20.9102 24.4453 21.2773C23.75 21.6367 22.9805 21.8047 22.1367 21.7812V21.1836C23.1367 21.1523 24.0312 21.3242 24.8203 21.6992C25.6094 22.0742 26.2305 22.6055 26.6836 23.293C27.1445 23.9805 27.375 24.7734 27.375 25.6719C27.375 26.6172 27.125 27.4688 26.625 28.2266C26.1328 28.9766 25.4609 29.5742 24.6094 30.0195C23.7578 30.4648 22.8047 30.6875 21.75 30.6875Z" fill="white"/>
</svg>
